name analog
datacolumns 19
datarows 22
range 0.498 0.5085000000000001
endheader
time	ground_force_vx	ground_force_vy	ground_force_vz	ground_force_px	ground_force_py	ground_force_pz	l_ground_force_vx	l_ground_force_vy	l_ground_force_vz	l_ground_force_px	l_ground_force_py	l_ground_force_pz	ground_torque_x	ground_torque_y	ground_torque_z	l_ground_torque_x	l_ground_torque_y	l_ground_torque_z
0.498	-0.0	-0.0	-0.0	-0.0	-0.0	-0.0	-1.144667148590088	-2.6581859588623047	-723.5135498046875	-0.0	-0.0	-0.0	-0.0	-0.0	-0.0	240178.15625	-9913.90625	-2012.5782470703125
0.4985	-0.0	-0.0	-0.0	-0.0	-0.0	-0.0	-1.6319348812103271	-2.8262939453125	-725.9519653320312	-0.0	-0.0	-0.0	-0.0	-0.0	-0.0	240776.953125	-9759.99609375	-2013.4451904296875
0.499	-0.0	-0.0	-0.0	-0.0	-0.0	-0.0	-1.8629264831542969	-2.596220016479492	-727.5263671875	-0.0	-0.0	-0.0	-0.0	-0.0	-0.0	241147.59375	-9766.9228515625	-2315.779541015625
0.4995	-0.0	-0.0	-0.0	-0.0	-0.0	-0.0	-2.387160539627075	-2.641655206680298	-730.1392211914062	-0.0	-0.0	-0.0	-0.0	-0.0	-0.0	241964.0	-9474.4208984375	-2405.156005859375
0.5	-0.0	-0.0	-0.0	-0.0	-0.0	-0.0	-3.494499683380127	-2.692056179046631	-732.2770385742188	-0.0	-0.0	-0.0	-0.0	-0.0	-0.0	242774.609375	-9291.9814453125	-2767.150146484375
0.5005000000000001	-0.0	-0.0	-0.0	-0.0	-0.0	-0.0	-4.150062084197998	-2.7648675441741943	-733.2485961914062	-0.0	-0.0	-0.0	-0.0	-0.0	-0.0	243551.484375	-9166.216796875	-2825.6416015625
0.501	-0.0	-0.0	-0.0	-0.0	-0.0	-0.0	-4.620412826538086	-2.9415831565856934	-738.1358642578125	-0.0	-0.0	-0.0	-0.0	-0.0	-0.0	244316.609375	-9254.3291015625	-3082.527587890625
0.5015000000000001	-0.0	-0.0	-0.0	-0.0	-0.0	-0.0	-5.002221584320068	-3.1453137397766118	-739.6099853515625	-0.0	-0.0	-0.0	-0.0	-0.0	-0.0	244978.1875	-9123.2373046875	-3086.985107421875
0.502	-0.0	-0.0	-0.0	-0.0	-0.0	-0.0	-5.125157833099365	-2.988746166229248	-742.617431640625	-0.0	-0.0	-0.0	-0.0	-0.0	-0.0	246282.515625	-9250.3203125	-3199.02685546875
0.5025000000000001	-0.0	-0.0	-0.0	-0.0	-0.0	-0.0	-5.391000270843506	-3.3764922618865967	-747.5064086914062	-0.0	-0.0	-0.0	-0.0	-0.0	-0.0	247571.625	-9241.271484375	-3117.10546875
0.503	-0.0	-0.0	-0.0	-0.0	-0.0	-0.0	-4.797147750854492	-3.295097589492798	-751.642578125	-0.0	-0.0	-0.0	-0.0	-0.0	-0.0	249251.0	-9395.3759765625	-3032.242919921875
0.5035000000000001	-0.0	-0.0	-0.0	-0.0	-0.0	-0.0	-4.196782112121582	-3.974475860595703	-756.288330078125	-0.0	-0.0	-0.0	-0.0	-0.0	-0.0	251089.0	-9794.94921875	-2945.1376953125
0.504	-0.0	-0.0	-0.0	-0.0	-0.0	-0.0	-4.47572135925293	-4.273107528686523	-761.4668579101562	-0.0	-0.0	-0.0	-0.0	-0.0	-0.0	252399.09375	-9961.353515625	-2837.917724609375
0.5045000000000001	-0.0	-0.0	-0.0	-0.0	-0.0	-0.0	-4.380547523498535	-4.769371032714844	-764.5338134765625	-0.0	-0.0	-0.0	-0.0	-0.0	-0.0	253997.140625	-10031.5458984375	-2712.94873046875
0.505	-0.0	-0.0	-0.0	-0.0	-0.0	-0.0	-4.224543571472168	-5.454476356506348	-769.1810302734375	-0.0	-0.0	-0.0	-0.0	-0.0	-0.0	255246.65625	-10432.978515625	-2742.7001953125
0.5055000000000001	-0.0	-0.0	-0.0	-0.0	-0.0	-0.0	-4.468992710113525	-5.945060253143311	-771.7338256835938	-0.0	-0.0	-0.0	-0.0	-0.0	-0.0	256582.578125	-10620.32421875	-2743.018798828125
0.506	-0.0	-0.0	-0.0	-0.0	-0.0	-0.0	-4.319151878356934	-6.414272308349609	-775.2255249023438	-0.0	-0.0	-0.0	-0.0	-0.0	-0.0	257134.953125	-10781.9111328125	-2822.78466796875
0.5065000000000001	-0.0	-0.0	-0.0	-0.0	-0.0	-0.0	-4.7294206619262695	-7.015919208526611	-777.0145874023438	-0.0	-0.0	-0.0	-0.0	-0.0	-0.0	257924.6875	-10902.3857421875	-2941.8857421875
0.507	-0.0	-0.0	-0.0	-0.0	-0.0	-0.0	-5.300169467926025	-6.894387722015381	-778.8897094726562	-0.0	-0.0	-0.0	-0.0	-0.0	-0.0	258468.078125	-11064.5849609375	-3149.90869140625
0.5075000000000001	-0.0	-0.0	-0.0	-0.0	-0.0	-0.0	-5.64449405670166	-7.06573486328125	-779.9557495117188	-0.0	-0.0	-0.0	-0.0	-0.0	-0.0	259006.4375	-11221.5341796875	-3396.824951171875
0.508	-0.0	-0.0	-0.0	-0.0	-0.0	-0.0	-6.840573787689209	-6.833477020263672	-781.3818969726562	-0.0	-0.0	-0.0	-0.0	-0.0	-0.0	259407.84375	-11220.646484375	-3584.964599609375
0.5085000000000001	-0.0	-0.0	-0.0	-0.0	-0.0	-0.0	-7.031352996826172	-6.712448120117188	-781.970703125	-0.0	-0.0	-0.0	-0.0	-0.0	-0.0	259641.421875	-11199.9482421875	-3833.366943359375
